<svg xmlns="http://www.w3.org/2000/svg" width="129.907" height="69.436" viewBox="0 0 129.907 69.436"><g transform="translate(-1018.984 -121.867)"><path d="M1053.914,146.028a4.322,4.322,0,1,0,4.393,4.25,4.321,4.321,0,0,0-4.393-4.25" fill="#1389ca"/><path d="M1082.728,166.574l-7.07-17.148v.005a28.372,28.372,0,0,0-56.671,2.431l.187,11.526a28.371,28.371,0,0,0,56.489,3.3ZM1062.1,162.7a14.564,14.564,0,1,1-29.124.466l-.187-11.524a14.567,14.567,0,0,1,29.13-.469Z" fill="#1389ca"/><path d="M1113.61,145.069a4.324,4.324,0,1,0,4.39,4.254,4.325,4.325,0,0,0-4.39-4.254" fill="#e6665f"/><path d="M1119.884,121.871a28.374,28.374,0,0,0-27.9,27.406l-.034-.11-6.476,17.361,7.062-.113a28.371,28.371,0,0,0,56.355-5.106l-.181-11.527a28.369,28.369,0,0,0-28.822-27.911m15.2,39.659a14.565,14.565,0,0,1-29.127.466l-.187-11.524A14.567,14.567,0,0,1,1134.9,150Z" fill="#e6665f"/></g></svg>